<svg xmlns="http://www.w3.org/2000/svg" xmlns:xlink="http://www.w3.org/1999/xlink" viewBox="0 0 989.974 263.784">
  <defs>
    <linearGradient id="linear-gradient" x1="0.5" y1="1" x2="0.5" gradientUnits="objectBoundingBox">
      <stop offset="0" stop-color="#b30068"/>
      <stop offset="0.29" stop-color="#c07"/>
      <stop offset="0.309" stop-color="#8d0053"/>
      <stop offset="0.31" stop-color="#4d002e"/>
      <stop offset="0.6" stop-color="#66003d"/>
      <stop offset="0.64" stop-color="#e60086"/>
      <stop offset="0.68" stop-color="#ff0096"/>
      <stop offset="0.7" stop-color="#ff80cc"/>
      <stop offset="0.72" stop-color="#ff66c2"/>
      <stop offset="1" stop-color="#ff80cc"/>
    </linearGradient>
  </defs>
  <g id="Full" transform="translate(-50.757 -50.216)">
    <g id="Logo" transform="translate(47 47)">
      <path id="PLAYTIME" d="M411.936,238.45V164.258L341.559,3.848h23.572l56.864,125.36L475.308,3.848h23.667L433.6,164.258V238.28l-21.66.17ZM696.23,163.63H673.2V4.13h23.03Zm-307.725,0H364.932L308.069,38.266l-53.313,125.36H231.088l69.1-160.411h16.186L388.5,163.626Zm485.034,0H850.393V39.522l-49.459,61.653h-4.261L746.638,39.522v124.1H723.607V4.128h21.8l53.456,65.507L852,4.128h21.534v159.5Zm-282.345,0H568.048V24.223H512.888V3.9H647.275V24.223H591.194Zm-374.316,0H121.415V4.128h23.031V142.847h72.432v20.778ZM27,163.626H3.856V3.9H54.869a65.151,65.151,0,0,1,20.7,3.082A45.363,45.363,0,0,1,91.6,16.231a39.808,39.808,0,0,1,10.277,14.443,48.636,48.636,0,0,1,3.426,18.667,47.946,47.946,0,0,1-1.757,13.131A42.089,42.089,0,0,1,98.283,74a40.261,40.261,0,0,1-8.32,9.263,41.79,41.79,0,0,1-10.91,6.322A64.8,64.8,0,0,1,64.2,93.226a149.086,149.086,0,0,1-20.152,1.212H27Zm0-139.4V74.116H52.221a43.115,43.115,0,0,0,12.437-1.641,25.075,25.075,0,0,0,9.213-4.924,20.7,20.7,0,0,0,5.7-7.977,28.765,28.765,0,0,0,1.9-10.8A27.941,27.941,0,0,0,79.556,38.03a19.119,19.119,0,0,0-5.744-7.671,25.831,25.831,0,0,0-9.572-4.6,52.47,52.47,0,0,0-13.4-1.534ZM993.731,163.4H900.339V4.128h91.2V24.451H923.37V73.088H989.24V93.525H923.37v49.55h70.36V163.4Z" fill="url(#linear-gradient)"/>
      <path id="STUDIOS" d="M957.692,259.87v-11.6q7.461,9.374,17.273,9.374a10.914,10.914,0,0,0,7.209-2.389,7.464,7.464,0,0,0,2.879-5.984q0-5.825-8.475-11.051l-7-4.217q-6.587-3.988-9.374-7.847a14.777,14.777,0,0,1-2.786-8.883,15.632,15.632,0,0,1,5.274-12.239q5.273-4.7,13.7-4.7a26.086,26.086,0,0,1,14.786,4.486v10.367q-6.957-6.634-14.971-6.634a12.469,12.469,0,0,0-7.416,2.07,6.268,6.268,0,0,0-2.9,5.3,8.128,8.128,0,0,0,2.138,5.368,26.853,26.853,0,0,0,6.875,5.254l7.035,4.127q11.773,6.973,11.774,17.75a16.206,16.206,0,0,1-5.182,12.468q-5.183,4.8-13.473,4.8A28.458,28.458,0,0,1,957.692,259.87Zm-170.327-3.437q-9.69-9.247-9.689-23.177,0-14.294,9.758-23.656t24.674-9.362q14.912,0,24.834,9.362a30.931,30.931,0,0,1,9.92,23.474q0,14.112-10.012,23.359T811.6,265.681Q797.054,265.681,787.365,256.432Zm6.955-40.667q-7.11,6.85-7.11,17.491a22.814,22.814,0,0,0,7.133,17.172q7.132,6.85,17.855,6.85a24.783,24.783,0,0,0,17.97-6.988,23.255,23.255,0,0,0,7.2-17.4,22.717,22.717,0,0,0-7.2-17.057,24.569,24.569,0,0,0-17.694-6.919Q801.429,208.914,794.32,215.765ZM318.281,259.2a20.785,20.785,0,0,1-3.893-4.5,23.187,23.187,0,0,1-2.625-6.1q-1.037-3.607-1.037-11.326V201.151h9.258v36.215q0,9,2.073,12.514a14.724,14.724,0,0,0,6.311,5.639,22.06,22.06,0,0,0,10,2.124q8.2,0,13.358-4.247a13.166,13.166,0,0,0,3.916-5.389q1.2-3.1,1.2-10.641V201.151h9.259v36.215a42.7,42.7,0,0,1-1.083,11.1,23.915,23.915,0,0,1-2.672,6.233,19.93,19.93,0,0,1-3.892,4.453q-7.646,6.531-19.991,6.53Q325.881,265.681,318.281,259.2ZM4.033,259.87v-11.6q7.461,9.374,17.273,9.374a10.914,10.914,0,0,0,7.209-2.389,7.464,7.464,0,0,0,2.879-5.984q0-5.825-8.475-11.051l-7-4.217q-6.587-3.988-9.373-7.847a14.777,14.777,0,0,1-2.786-8.883,15.632,15.632,0,0,1,5.274-12.239q5.273-4.7,13.7-4.7a26.086,26.086,0,0,1,14.786,4.486v10.367q-6.957-6.634-14.971-6.634a12.469,12.469,0,0,0-7.416,2.07,6.268,6.268,0,0,0-2.9,5.3,8.128,8.128,0,0,0,2.137,5.368,26.854,26.854,0,0,0,6.875,5.254l7.035,4.127q11.773,6.973,11.774,17.75a16.206,16.206,0,0,1-5.182,12.468q-5.183,4.8-13.473,4.8A28.458,28.458,0,0,1,4.033,259.87ZM654.59,264.95v-63.8H663.8v63.8Zm-485.373,0V209.189H147.154v-8.13h53.754v8.13H178.475V264.95Zm312.175-.092V201.151h21.7q13.127,0,20.774,3.9a29.626,29.626,0,0,1,12.161,11.486,31.737,31.737,0,0,1,4.513,16.532,31.51,31.51,0,0,1-20.5,29.411,32.7,32.7,0,0,1-6.679,1.9,90.24,90.24,0,0,1-11.607.479Zm9.212-8.129H502.4a47.523,47.523,0,0,0,10.733-.936,25.338,25.338,0,0,0,6.38-2.375,21.787,21.787,0,0,0,4.675-3.539Q531,243.028,531,232.571q0-10.275-7-16.761a22.4,22.4,0,0,0-5.919-3.973,24.942,24.942,0,0,0-6.333-2.056,65.117,65.117,0,0,0-9.627-.5H490.6Z" fill="#000001"/>
    </g>
  </g>
</svg>
