<svg xmlns="http://www.w3.org/2000/svg" viewBox="0 0 149.407 28">
    <defs>
        <clipPath id="uhxjlzzw">
            <path fill="#000000" d="M0 0h149.407v28H0z"></path>
        </clipPath>
    </defs>
    <g clip-path="url(#uhxjlzzw)">
        <path d="M24.658 1.805c-1.582-1.893-4.34-2.327-7.377-1.16C13.862 1.958 10.59 5.1 8.3 9.272a29.7 29.7 0 0 0-2.795 7.4c-.092-.081-.182-.163-.27-.249a7.164 7.164 0 0 1-1.829-6.137 13.033 13.033 0 0 1 3.81-7.434.118.118 0 0 0 .014-.014L4.891.467 4.851.5A16.388 16.388 0 0 0 .1 9.877a10.423 10.423 0 0 0 2.791 8.914 9.31 9.31 0 0 0 1.949 1.477 44.055 44.055 0 0 0-.352 7.432h3.334a40.819 40.819 0 0 1 .235-6.286 11.677 11.677 0 0 0 2.068.182c.332 0 .667-.017 1-.045A14.044 14.044 0 0 0 16.5 20.13a17.714 17.714 0 0 0 6.882-6.23c2.983-4.579 3.5-9.44 1.28-12.1ZM20.586 12.08a15.579 15.579 0 0 1-1.892 2.359 13.369 13.369 0 0 1-6.564 3.64 10.579 10.579 0 0 1-3.524.033c1.707-7.859 5.84-12.807 9.871-14.354 1.62-.623 3.007-.552 3.623.185 1.046 1.252.766 4.639-1.513 8.139Z" fill="#000000"></path>
        <path d="M104.5 52.938a5.9 5.9 0 0 0-4.733-2.277c-4.053 0-7.13 3.46-7.13 7.69s3.076 7.691 7.13 7.691a5.9 5.9 0 0 0 4.733-2.277v1.982h3.254V50.958H104.5v1.98Zm-4.142 10.146a4.428 4.428 0 0 1-4.408-4.733 4.419 4.419 0 1 1 8.816 0 4.428 4.428 0 0 1-4.408 4.733" transform="translate(-69.569 -38.044)" fill="#000000"></path>
        <path d="M167.408 39.455h4.23v2.9h-4.23v6.6c0 1.833.8 2.514 2.485 2.514a5.272 5.272 0 0 0 1.745-.3v2.9a7.868 7.868 0 0 1-2.426.325c-2.839 0-5.058-1.568-5.058-4.911v-7.13h-3.076v-2.9h3.076v-4.11h3.255Z" transform="translate(-120.962 -26.541)" fill="#000000"></path>
        <path d="M211.015 58.357a4.464 4.464 0 0 0 4.5 4.674 4.409 4.409 0 0 0 4.053-2.6l2.839 1.537a7.691 7.691 0 1 1 0-7.216l-2.839 1.537a4.409 4.409 0 0 0-4.053-2.6 4.465 4.465 0 0 0-4.5 4.674Z" transform="translate(-155.975 -38.049)" fill="#000000"></path>
        <path d="M289.561 35.439v8.9h-3.255v-8.367c0-2.338-1.183-3.758-3.076-3.758-2.16 0-3.817 1.686-3.817 4.852v7.277h-3.254V22.157h3.254v9.407a5.09 5.09 0 0 1 4.5-2.307c3.431 0 5.649 2.426 5.649 6.182Z" transform="translate(-207.383 -16.639)" fill="#000000"></path>
        <path d="M353.886 51.855h3.46l-4.97 14.79H349.3l-3.255-9.585-3.223 9.585h-3.076l-4.97-14.79h3.431l3.2 10.175 3.4-10.175h2.485l3.372 10.175Z" transform="translate(-251.402 -38.941)" fill="#000000"></path>
        <path d="M434.814 50.661a7.691 7.691 0 1 0 7.75 7.69 7.633 7.633 0 0 0-7.75-7.69m0 12.364a4.681 4.681 0 1 1 4.437-4.674 4.441 4.441 0 0 1-4.437 4.674" transform="translate(-320.706 -38.044)" fill="#000000"></path>
        <path d="M507.143 51.258a6.29 6.29 0 0 1 1.273.119v3.343a5.054 5.054 0 0 0-1.627-.266c-1.864 0-3.55 1.566-3.55 4.525V66.2h-3.254V51.407h3.254v2.633a4.161 4.161 0 0 1 3.9-2.781Z" transform="translate(-375.466 -38.493)" fill="#000000"></path>
        <path d="M556.215 44.343h-4.171l-7.069-7.159v7.159h-3.255V22.157h3.255v13.016l5.65-5.62h4.112l-6.6 6.6Z" transform="translate(-406.809 -16.639)" fill="#000000"></path>
    </g>
</svg>